<svg width="102" height="103" viewBox="0 0 102 103" fill="none" xmlns="http://www.w3.org/2000/svg">
<path d="M47.05 69C45.02 70.35 42.95 70.62 40.92 69.06C38.91 67.51 38.73 65.3901 39.5 62.7901C36.87 63.3601 34.5 63.34 32.95 61C31.62 58.99 31.94 57.03 33.25 55.13C33.41 54.97 33.58 54.81 33.74 54.65C34.68 53.97 35.77 53.3201 36.87 53.5401C38.87 53.9401 38.5 53.01 38.61 51.61C38.76 49.66 38.55 48.87 36.37 49.18C35.58 49.29 34.67 48.59 33.81 48.25C33.58 48.02 33.35 47.79 33.12 47.56C31.96 45.62 31.61 43.65 33.01 41.69C34.56 39.52 36.76 39.33 39.46 40.05C38.78 37.39 38.88 35.06 41.21 33.51C43.21 32.19 45.17 32.52 47.06 33.83C47.22 33.99 47.38 34.16 47.54 34.32C47.93 35.26 48.75 36.28 48.61 37.14C48.22 39.44 49.32 39.03 50.92 39.16C52.84 39.32 53.01 38.79 52.95 37.15C52.92 36.22 53.65 35.27 54.04 34.32C54.21 34.15 54.38 33.97 54.55 33.8C56.56 32.38 58.64 32.14 60.66 33.68C62.68 35.21 62.92 37.32 62.13 39.9C64.69 39.46 67.09 39.35 68.66 41.71C69.99 43.72 69.69 45.68 68.42 47.59C68.23 47.78 68.03 47.98 67.84 48.17C66.88 48.54 65.88 49.31 64.98 49.21C63.03 48.99 63.05 49.68 63.07 51.34C63.09 52.94 63 53.71 64.98 53.5C65.88 53.4 66.88 54.17 67.84 54.55C68.04 54.75 68.24 54.94 68.43 55.14C69.7799 57.16 70.04 59.23 68.5 61.24C66.97 63.23 64.8899 63.55 62.29 62.7C62.82 65.38 62.73 67.83 60.25 69.37C58.35 70.55 56.46 70.23 54.65 69.07C54.41 68.82 54.16 68.58 53.92 68.33C52.96 66.91 52.72 65.33 52.98 63.68C50.26 63.37 47.99 63.45 48.27 67.06C48.3 67.49 47.82 67.97 47.58 68.42C47.41 68.63 47.23 68.82 47.05 69ZM60.1 60.69C58.54 59.74 61.82 56.76 58.33 56.75C56.55 56.74 56.14 57.35 56.15 59C56.18 62.44 59.11 59.17 60.1 60.69ZM41.6 60.72C42.56 59.41 46.04 62.51 45.44 58.26C44.96 54.88 42.81 57.54 41.62 56.67C42.11 58.08 41.59 59.26 41.6 60.72ZM60.22 42.17C56.09 42.6 56.19 42.61 56.08 43.57C55.68 46.9 58.19 45.76 60.14 46.28C59.55 44.75 60 43.49 60.22 42.17ZM41.56 41.99C41.79 43.49 41.93 44.78 41.71 46.23C42.85 45.21 45.13 47.73 45.51 44.38C45.99 40.24 42.49 43.53 41.56 41.99ZM49.22 51.14C49.29 52.02 48.62 53.28 50.43 52.93C51.34 52.75 52.52 53.4 52.37 51.5C52.27 50.21 52.2 49.71 50.72 49.8C49.61 49.88 48.81 49.77 49.22 51.14Z" fill="#BEFF01"/>
<path d="M47.5399 34.34C47.3799 34.18 47.2199 34.01 47.0599 33.85C47.0399 33.64 47.0599 33.42 46.9799 33.23C45.9299 30.92 45.8899 28.73 48.0399 27.04C49.7899 25.66 51.7599 25.66 53.5199 27.02C55.6799 28.7 55.6499 30.89 54.6299 33.21C54.5499 33.39 54.5699 33.62 54.5399 33.82C54.3699 33.99 54.1999 34.17 54.0299 34.34C51.8799 35.23 49.7099 35.21 47.5399 34.34Z" fill="#BEFF01"/>
<path d="M68.4401 55.18C68.2401 54.98 68.0401 54.79 67.8501 54.59C66.9401 52.47 66.9501 50.34 67.8501 48.22C68.0401 48.03 68.2401 47.83 68.4301 47.64C69.1201 47.43 69.8001 47.16 70.5001 47.02C72.5101 46.64 74.2401 47.13 75.3901 48.91C76.4401 50.54 76.4401 52.26 75.4001 53.89C74.2501 55.68 72.5201 56.17 70.5201 55.79C69.8101 55.66 69.1301 55.38 68.4401 55.18Z" fill="#BEFF01"/>
<path d="M53.9301 68.36C54.1701 68.61 54.4201 68.8501 54.6601 69.1001C54.7901 69.6001 54.9301 70.1001 55.0601 70.6001C55.6201 72.7201 55.2801 74.6101 53.4001 75.9101C51.6701 77.1001 49.8101 77.0801 48.1101 75.8401C46.2601 74.4901 45.9701 72.59 46.5901 70.49C46.7401 69.99 46.8901 69.5 47.0501 69C47.2301 68.82 47.4101 68.64 47.5901 68.45C49.6901 67.56 51.8001 67.58 53.9301 68.36Z" fill="#BEFF01"/>
<path d="M33.75 54.66C33.59 54.82 33.42 54.98 33.26 55.14C30.73 55.95 28.17 56.68 26.28 53.95C25.18 52.36 25.15 50.62 26.21 48.99C28.01 46.2 30.57 46.82 33.13 47.58C33.36 47.81 33.59 48.04 33.82 48.27C34.66 50.41 34.58 52.54 33.75 54.66Z" fill="#BEFF01"/>
<path d="M75.9602 65.2C76.0102 67.55 73.9001 69.67 71.5401 69.62C69.3101 69.58 67.3202 67.59 67.2702 65.36C67.2202 63 69.3301 60.89 71.6801 60.94C73.9301 60.98 75.9202 62.96 75.9602 65.2Z" fill="#BEFF01"/>
<path d="M30.0299 69.58C27.6999 69.6 25.62 67.4801 25.69 65.1601C25.76 62.9501 27.7399 61.0001 29.9499 60.9701C32.2799 60.9501 34.3599 63.07 34.2899 65.39C34.2199 67.61 32.2399 69.56 30.0299 69.58Z" fill="#BEFF01"/>
<path d="M41.24 72.07C41.33 74.4 39.26 76.54 36.92 76.54C34.71 76.54 32.7 74.6 32.61 72.37C32.52 70.05 34.59 67.9 36.93 67.9C39.15 67.91 41.16 69.84 41.24 72.07Z" fill="#BEFF01"/>
<path d="M71.3801 41.85C69.0201 41.7 67.0701 39.44 67.3101 37.13C67.5401 34.89 69.6601 33.06 71.8601 33.2C74.2101 33.35 76.1701 35.61 75.9301 37.92C75.7001 40.16 73.5801 41.99 71.3801 41.85Z" fill="#BEFF01"/>
<path d="M29.84 33.22C32.03 33.13 34.11 35 34.29 37.22C34.48 39.52 32.49 41.74 30.15 41.83C27.83 41.92 25.69 39.85 25.7 37.52C25.69 35.31 27.62 33.31 29.84 33.22Z" fill="#BEFF01"/>
<path d="M69.0101 30.61C69.0001 32.96 66.8401 35.03 64.5101 34.92C62.2801 34.82 60.3501 32.8 60.3601 30.57C60.3701 28.22 62.5301 26.15 64.8601 26.26C67.0901 26.36 69.0201 28.38 69.0101 30.61Z" fill="#BEFF01"/>
<path d="M36.95 26.28C39.28 26.29 41.34 28.44 41.23 30.76C41.13 32.98 39.11 34.9 36.91 34.89C34.58 34.88 32.52 32.73 32.62 30.41C32.73 28.2 34.74 26.27 36.95 26.28Z" fill="#BEFF01"/>
<path d="M69.0099 72.17C69.0399 74.52 66.9199 76.61 64.5799 76.55C62.3499 76.49 60.3899 74.5 60.3599 72.27C60.3299 69.92 62.4399 67.83 64.7899 67.89C67.0199 67.95 68.9799 69.93 69.0099 72.17Z" fill="#BEFF01"/>
<path d="M39.8601 78.91C40.2101 76.47 41.5901 75.16 44.0501 75.18C46.4001 75.2 48.1201 77.2 47.8201 79.57C47.5101 82.04 45.9601 83.28 43.5301 83.1C41.0501 82.92 39.9301 81.31 39.8601 78.91Z" fill="#BEFF01"/>
<path d="M78.55 62.38C76.11 62.16 74.6799 60.8901 74.5599 58.4101C74.4499 56.0501 76.3599 54.1701 78.7199 54.3501C81.1799 54.5301 82.5799 55.97 82.5399 58.43C82.4999 60.91 80.99 62.17 78.55 62.38Z" fill="#BEFF01"/>
<path d="M27.0301 58.3C26.8401 60.75 25.6001 62.25 23.0901 62.27C20.6101 62.29 19.1501 60.88 19.1201 58.39C19.0901 55.91 20.5001 54.46 22.9901 54.42C25.5001 54.38 26.7901 55.84 27.0301 58.3Z" fill="#BEFF01"/>
<path d="M61.7802 79.11C61.6002 81.53 60.3602 83.06 57.8802 83.13C55.4202 83.2 53.9602 81.83 53.7502 79.36C53.5502 77 55.4002 75.06 57.7702 75.15C60.2402 75.25 61.5402 76.66 61.7802 79.11Z" fill="#BEFF01"/>
<path d="M78.4899 48.5C76.0399 48.24 74.6399 46.94 74.5599 44.46C74.4899 42.1 76.4399 40.25 78.7999 40.47C81.2599 40.7 82.6299 42.17 82.5399 44.63C82.4499 47.1 80.9099 48.33 78.4899 48.5Z" fill="#BEFF01"/>
<path d="M23.2101 40.48C25.6501 40.78 27.07 42.13 26.97 44.61C26.87 47.1 25.37 48.46 22.89 48.38C20.4 48.29 19.04 46.78 19.12 44.31C19.21 41.8 20.7601 40.61 23.2101 40.48Z" fill="#BEFF01"/>
<path d="M47.88 23.55C47.62 26.16 46.32 27.62 43.81 27.58C41.31 27.54 39.89 26.08 39.93 23.59C39.96 21.09 41.43 19.69 43.92 19.7C46.45 19.72 47.65 21.28 47.88 23.55Z" fill="#BEFF01"/>
<path d="M61.7601 23.69C61.5301 26.13 60.2502 27.53 57.7702 27.62C55.4102 27.7 53.5802 25.8 53.7702 23.44C53.9702 20.98 55.4201 19.62 57.8701 19.69C60.3501 19.76 61.5801 21.27 61.7601 23.69Z" fill="#BEFF01"/>
<path d="M30.1 82.81C27.92 82.56 26.47 81.42 26.42 79.23C26.37 77.05 27.75 75.63 29.92 75.58C32.1 75.53 33.51 76.91 33.57 79.07C33.62 81.27 32.19 82.45 30.1 82.81Z" fill="#BEFF01"/>
<path d="M50.87 89.77C48.72 89.52 47.26 88.37 47.21 86.18C47.16 83.99 48.55 82.56 50.73 82.51C52.92 82.46 54.34 83.85 54.4 86.02C54.46 88.22 53.03 89.42 50.87 89.77Z" fill="#BEFF01"/>
<path d="M85.76 47.75C87.7 48.06 89.02 49.23 89.14 51.41C89.25 53.38 87.2 55.31 85.27 55.04C83.14 54.75 81.89 53.43 81.87 51.24C81.84 49.38 83.73 47.7 85.76 47.75Z" fill="#BEFF01"/>
<path d="M19.75 51.37C19.4 53.61 18.21 55.01 16.03 54.96C13.87 54.9 12.5 53.49 12.56 51.32C12.61 49.16 14.03 47.8 16.2 47.84C18.38 47.89 19.47 49.37 19.75 51.37Z" fill="#BEFF01"/>
<path d="M50.7501 13.06C52.8801 13.31 54.3401 14.46 54.3701 16.64C54.4101 18.82 53.0301 20.23 50.8601 20.28C48.6801 20.33 47.2701 18.95 47.2201 16.78C47.1801 14.59 48.6001 13.4 50.7501 13.06Z" fill="#BEFF01"/>
<path d="M33.62 23.59C33.38 25.71 32.24 27.16 30.07 27.2C27.9 27.25 26.49 25.88 26.44 23.72C26.39 21.55 27.76 20.14 29.92 20.09C32.09 20.03 33.28 21.44 33.62 23.59Z" fill="#BEFF01"/>
<path d="M75.2899 79.22C74.9299 81.38 73.7399 82.81 71.5399 82.75C69.3599 82.69 67.9699 81.26 68.0299 79.07C68.0899 76.89 69.5099 75.51 71.6999 75.56C73.8999 75.61 75.0399 77.08 75.2899 79.22Z" fill="#BEFF01"/>
<path d="M71.5601 19.98C73.7101 20.23 75.1701 21.38 75.2101 23.58C75.2501 25.77 73.8701 27.2 71.6901 27.25C69.5001 27.3 68.0801 25.91 68.0201 23.73C67.9701 21.52 69.4001 20.33 71.5601 19.98Z" fill="#BEFF01"/>
<path d="M23.01 68.58C25.25 68.93 26.66 70.12 26.6 72.3C26.55 74.46 25.14 75.83 22.97 75.78C20.81 75.73 19.45 74.32 19.48 72.15C19.53 69.96 21.01 68.86 23.01 68.58Z" fill="#BEFF01"/>
<path d="M78.6101 34.26C76.4701 34 75.0001 32.85 74.9601 30.66C74.9201 28.47 76.3101 27.05 78.4801 27C80.6701 26.95 82.0901 28.34 82.1401 30.52C82.2101 32.72 80.7801 33.91 78.6101 34.26Z" fill="#BEFF01"/>
<path d="M26.6901 30.48C26.4401 32.66 25.3001 34.1 23.1301 34.14C20.9601 34.18 19.5501 32.82 19.5001 30.66C19.4501 28.49 20.8201 27.09 22.9801 27.03C25.1601 26.97 26.3301 28.39 26.6901 30.48Z" fill="#BEFF01"/>
<path d="M82.2502 72.3C81.9002 74.43 80.7302 75.75 78.5502 75.86C76.5702 75.96 74.6601 73.91 74.9301 71.98C75.2301 69.85 76.5601 68.51 78.7301 68.62C80.8801 68.72 82.0202 70.17 82.2502 72.3Z" fill="#BEFF01"/>
<path d="M85.6001 34.19C87.7301 34.41 88.8901 35.59 88.7901 37.71C88.6801 39.86 87.3401 40.94 85.2301 40.81C83.2501 40.69 82.1701 39.47 82.2001 37.49C82.2301 35.34 83.5001 34.3 85.6001 34.19Z" fill="#BEFF01"/>
<path d="M85.5902 68.65C83.3702 68.45 82.1502 67.35 82.1902 65.23C82.2202 63.12 83.4501 61.94 85.5501 61.97C87.6601 62 88.8302 63.23 88.8202 65.33C88.8102 67.47 87.5002 68.46 85.5902 68.65Z" fill="#BEFF01"/>
<path d="M15.9802 68.58C13.8802 68.34 12.7402 67.18 12.8602 65.07C12.9802 62.93 14.3202 61.88 16.4002 62.02C18.3602 62.15 19.4102 63.37 19.3802 65.33C19.3302 67.48 18.0702 68.49 15.9802 68.58Z" fill="#BEFF01"/>
<path d="M64.68 13.39C66.78 13.55 68 14.65 67.96 16.79C67.91 18.93 66.65 20.06 64.53 19.99C62.56 19.93 61.44 18.77 61.4 16.8C61.37 14.65 62.57 13.55 64.68 13.39Z" fill="#BEFF01"/>
<path d="M16.3299 40.84C14.1099 40.71 12.8499 39.67 12.8599 37.53C12.8699 35.4 14.0799 34.24 16.1899 34.27C18.1499 34.29 19.2899 35.41 19.3799 37.37C19.4699 39.51 18.2599 40.59 16.3299 40.84Z" fill="#BEFF01"/>
<path d="M68.0301 86.1C67.7801 88.35 66.6001 89.51 64.4701 89.39C62.3201 89.27 61.2501 87.92 61.3901 85.81C61.5201 83.83 62.7601 82.77 64.7301 82.8C66.9201 82.83 67.8801 84.16 68.0301 86.1Z" fill="#BEFF01"/>
<path d="M37.0401 89.43C34.7901 89.24 33.5901 88.12 33.6601 85.99C33.7301 83.85 35.0101 82.74 37.1201 82.82C39.0901 82.9 40.1901 84.07 40.2201 86.05C40.2401 88.22 38.9701 89.23 37.0401 89.43Z" fill="#BEFF01"/>
<path d="M40.2301 16.84C39.9901 18.94 38.8301 20.08 36.7201 19.96C34.5801 19.84 33.5301 18.5 33.6701 16.42C33.8001 14.46 35.0201 13.41 36.9801 13.44C39.1301 13.49 40.1301 14.75 40.2301 16.84Z" fill="#BEFF01"/>
<path d="M92.4202 61.35C90.5202 60.98 89.3502 59.94 89.5102 58.11C89.6702 56.33 90.8902 55.23 92.7402 55.41C94.3902 55.58 95.4402 56.72 95.3802 58.4C95.3202 60.25 94.0602 61.14 92.4202 61.35Z" fill="#BEFF01"/>
<path d="M9.1801 61.24C7.4101 61.06 6.2701 60.08 6.3101 58.24C6.3501 56.57 7.4301 55.49 9.1101 55.48C10.9401 55.47 12.0601 56.6 12.0201 58.43C12.0001 60.11 10.9101 61.04 9.1801 61.24Z" fill="#BEFF01"/>
<path d="M57.6501 6.84C59.2701 6.95 60.4501 7.78 60.6101 9.47C60.7801 11.32 59.7101 12.55 57.8901 12.65C56.0601 12.75 54.8801 11.61 54.8601 9.77002C54.8401 8.07002 55.9301 7.11 57.6501 6.84Z" fill="#BEFF01"/>
<path d="M95.44 44.36C95.27 46.13 94.33 47.36 92.5 47.39C90.68 47.42 89.52 46.26 89.5 44.44C89.48 42.76 90.58 41.64 92.22 41.53C94.06 41.41 95.09 42.55 95.44 44.36Z" fill="#BEFF01"/>
<path d="M9.09009 41.56C10.6901 41.66 11.8501 42.48 12.0101 44.16C12.1801 46 11.1301 47.21 9.3201 47.31C7.5001 47.41 6.3401 46.29 6.3201 44.45C6.3001 42.78 7.36009 41.82 9.09009 41.56Z" fill="#BEFF01"/>
<path d="M46.84 92.9701C46.66 94.7201 45.7099 95.93 43.8999 95.95C42.0899 95.96 40.96 94.8 40.96 92.99C40.96 91.32 42.05 90.22 43.69 90.13C45.5 90.03 46.53 91.1501 46.84 92.9701Z" fill="#BEFF01"/>
<path d="M46.8001 9.72C46.6701 11.36 45.8001 12.52 44.1201 12.65C42.2801 12.79 41.0601 11.7 40.9901 9.87C40.9201 8.03 42.08 6.88002 43.93 6.89002C45.61 6.89002 46.5601 8 46.8001 9.72Z" fill="#BEFF01"/>
<path d="M57.7501 96C55.9701 95.77 54.7901 94.79 54.8301 92.97C54.8701 91.16 56.0701 90.05 57.8801 90.12C59.5301 90.18 60.6201 91.28 60.6601 92.94C60.7001 94.76 59.5501 95.75 57.7501 96Z" fill="#BEFF01"/>
<path d="M85.4701 81.82C83.7601 81.68 82.8001 80.76 82.8801 79C82.9501 77.4 83.9101 76.5201 85.5101 76.5301C87.2801 76.5501 88.2001 77.57 88.1301 79.31C88.0601 80.93 87.0801 81.71 85.4701 81.82Z" fill="#BEFF01"/>
<path d="M78.31 14.06C80.17 14.15 81.18 14.99 81.17 16.76C81.16 18.35 80.26 19.28 78.67 19.31C76.93 19.35 75.96 18.41 75.96 16.66C75.95 15.05 76.92 14.27 78.31 14.06Z" fill="#BEFF01"/>
<path d="M78.6001 83.44C80.2101 83.58 81.1601 84.4 81.1901 86.01C81.2201 87.77 80.2601 88.74 78.5001 88.73C76.9001 88.71 75.9801 87.8 75.9401 86.2C75.9001 84.42 76.8901 83.54 78.6001 83.44Z" fill="#BEFF01"/>
<path d="M85.2601 20.98C87.1201 21.07 88.1401 21.92 88.1201 23.7C88.1101 25.3 87.2001 26.24 85.6001 26.27C83.8501 26.31 82.8701 25.36 82.8701 23.6C82.8701 21.98 83.8501 21.18 85.2601 20.98Z" fill="#BEFF01"/>
<path d="M25.66 16.77C25.5 18.34 24.68 19.29 23.07 19.28C21.3 19.27 20.38 18.23 20.49 16.5C20.59 14.91 21.6 14.07 23.19 14.14C24.79 14.21 25.56 15.19 25.66 16.77Z" fill="#BEFF01"/>
<path d="M16.2101 76.54C17.7901 76.71 18.7201 77.56 18.7001 79.18C18.6701 80.97 17.6001 81.87 15.8701 81.74C14.2601 81.62 13.4401 80.58 13.5301 78.99C13.6201 77.37 14.6201 76.61 16.2101 76.54Z" fill="#BEFF01"/>
<path d="M74.1 9.68001C73.97 11.11 73.22 12.11 71.79 12.18C70.2 12.26 69.19 11.29 69.21 9.7C69.23 8.27 70.18 7.35999 71.62 7.34999C73.07 7.33999 73.85 8.28001 74.1 9.68001Z" fill="#BEFF01"/>
<path d="M32.4499 9.77999C32.2399 11.18 31.4799 12.16 30.0599 12.17C28.4899 12.18 27.51 11.18 27.6 9.61001C27.68 8.22001 28.6499 7.30999 30.0799 7.36999C31.5099 7.41999 32.2499 8.37999 32.4499 9.77999Z" fill="#BEFF01"/>
<path d="M23.04 83.47C24.63 83.58 25.61 84.39 25.63 86.01C25.66 87.78 24.66 88.75 22.9 88.68C21.29 88.62 20.43 87.63 20.46 86.03C20.5 84.41 21.45 83.6 23.04 83.47Z" fill="#BEFF01"/>
<path d="M92.4201 74.73C90.8901 74.51 89.9001 73.68 89.9801 72.07C90.0501 70.64 90.9801 69.74 92.4301 69.76C94.0201 69.78 94.9601 70.77 94.9001 72.36C94.8301 73.81 93.8701 74.56 92.4201 74.73Z" fill="#BEFF01"/>
<path d="M8.99002 69.75C10.52 69.92 11.51 70.67 11.57 72.08C11.64 73.65 10.66 74.65 9.08002 74.62C7.67002 74.59 6.77001 73.64 6.76001 72.21C6.76001 70.75 7.77002 70.05 8.99002 69.75Z" fill="#BEFF01"/>
<path d="M16.2101 26.27C14.4701 26.09 13.5301 25.26 13.5401 23.65C13.5601 21.88 14.6001 20.97 16.3301 21.08C17.9201 21.18 18.7501 22.2 18.6801 23.79C18.6101 25.42 17.5701 26.12 16.2101 26.27Z" fill="#BEFF01"/>
<path d="M92.28 33.08C90.8 32.77 89.83 31.9 90.01 30.31C90.16 28.92 91.13 28.03 92.56 28.14C94.12 28.26 95.03 29.28 94.87 30.85C94.72 32.26 93.74 32.99 92.28 33.08Z" fill="#BEFF01"/>
<path d="M32.4601 93.13C32.2001 94.53 31.4201 95.47 29.9601 95.45C28.5201 95.43 27.5701 94.52 27.5601 93.08C27.5501 91.48 28.5601 90.52 30.1501 90.61C31.5901 90.7 32.3401 91.7 32.4601 93.13Z" fill="#BEFF01"/>
<path d="M71.4601 90.51C73.1301 90.75 74.1301 91.56 74.0601 93.15C74.0001 94.56 73.0701 95.47 71.6501 95.47C70.0801 95.46 69.1301 94.49 69.1801 92.91C69.2201 91.47 70.2401 90.79 71.4601 90.51Z" fill="#BEFF01"/>
<path d="M11.61 30.65C11.34 32.07 10.55 33.02 9.09003 32.96C7.66003 32.9 6.74003 31.95 6.79003 30.5C6.85003 29.07 7.80003 28.15 9.25003 28.2C10.7 28.26 11.45 29.24 11.61 30.65Z" fill="#BEFF01"/>
<path d="M101.56 51.35C101.42 52.76 100.69 53.57 99.3501 53.56C98.0101 53.55 97.2101 52.72 97.2201 51.39C97.2301 50.05 98.0601 49.25 99.3901 49.26C100.75 49.26 101.43 50.11 101.56 51.35Z" fill="#BEFF01"/>
<path d="M66.5801 99.73C66.5301 101 65.9801 101.73 64.9001 101.84C63.6701 101.96 62.8601 101.31 62.8201 100.05C62.7801 98.8 63.5201 98.1 64.7701 98.11C65.8901 98.12 66.4001 98.88 66.5801 99.73Z" fill="#BEFF01"/>
<path d="M48.6799 100.01C48.8799 98.51 49.6699 97.78 50.9999 97.89C52.3599 98 53.0299 98.92 52.8899 100.24C52.7699 101.41 51.9799 102.1 50.7699 102.06C49.3899 102.03 48.7899 101.16 48.6799 100.01Z" fill="#BEFF01"/>
<path d="M38.8101 99.96C38.6801 101.14 38.0501 101.88 36.8101 101.82C35.7401 101.77 35.0801 101.08 35.0801 100.01C35.0801 98.78 35.8201 98.08 37.0401 98.13C38.1201 98.17 38.6701 98.88 38.8101 99.96Z" fill="#BEFF01"/>
<path d="M38.7899 2.85C38.6399 3.92 38.07 4.65001 36.99 4.65001C35.75 4.66001 35.0199 3.88999 35.1199 2.65999C35.1999 1.60999 35.93 0.95 37.03 1.01C38.11 1.07 38.6699 1.78 38.7899 2.85Z" fill="#BEFF01"/>
<path d="M52.8901 2.83999C52.7201 4.33999 51.8801 5.01 50.5401 4.88C49.3201 4.76 48.6801 3.94 48.7501 2.72C48.8401 1.31 49.7301 0.660004 51.0701 0.790004C52.3001 0.900004 52.8501 1.73999 52.8901 2.83999Z" fill="#BEFF01"/>
<path d="M66.59 2.76001C66.37 4.09001 65.68 4.80001 64.46 4.67001C63.42 4.56001 62.76 3.85001 62.83 2.76001C62.91 1.54001 63.69 0.870009 64.9 0.980009C65.97 1.09001 66.45 1.87001 66.59 2.76001Z" fill="#BEFF01"/>
<path d="M4.09996 37.52C3.96996 38.59 3.39996 39.32 2.31996 39.34C1.07996 39.36 0.339954 38.6 0.419954 37.37C0.489954 36.31 1.20995 35.65 2.30995 35.7C3.39995 35.75 3.95996 36.46 4.09996 37.52Z" fill="#BEFF01"/>
<path d="M101.3 37.33C101.21 38.69 100.6 39.41 99.35 39.42C98.27 39.42 97.58 38.81 97.49 37.74C97.39 36.53 97.99 35.74 99.24 35.65C100.51 35.55 101.11 36.3 101.3 37.33Z" fill="#BEFF01"/>
<path d="M4.28005 51.41C4.19005 52.71 3.49004 53.47 2.12004 53.42C0.910044 53.38 0.210056 52.65 0.210056 51.44C0.200056 50.07 0.980055 49.33 2.35006 49.37C3.56006 49.42 4.19005 50.16 4.28005 51.41Z" fill="#BEFF01"/>
<path d="M4.09998 65.33C3.93998 66.39 3.34998 67.11 2.26998 67.1C1.02998 67.09 0.309968 66.31 0.429968 65.08C0.529968 64.03 1.26997 63.37 2.36997 63.46C3.43997 63.54 3.99998 64.25 4.09998 65.33Z" fill="#BEFF01"/>
<path d="M101.29 65.24C101.21 66.45 100.6 67.17 99.35 67.17C98.27 67.17 97.58 66.56 97.49 65.49C97.39 64.28 97.99 63.48 99.24 63.4C100.48 63.32 101.15 64 101.29 65.24Z" fill="#BEFF01"/>
</svg>
