<svg width="2396" height="787" viewBox="0 0 2396 787" fill="none" xmlns="http://www.w3.org/2000/svg">
<path fill-rule="evenodd" clip-rule="evenodd" d="M1379.39 649.48L1364.01 653.81C1363.46 650.24 1360.54 644.17 1351.22 644.17C1344.83 644.17 1340.71 648.18 1340.71 652.4C1340.71 656.09 1342.99 658.8 1348.3 659.77L1358.59 661.72C1373.21 664.43 1380.8 673.85 1380.8 684.8C1380.8 696.82 1370.72 709.06 1352.41 709.06C1331.18 709.06 1322.08 695.3 1321 684.47L1336.71 680.68C1337.36 687.72 1342.12 693.9 1352.63 693.9C1359.35 693.9 1363.46 690.65 1363.46 685.88C1363.46 681.98 1360.32 679.16 1355.23 678.19L1344.72 676.24C1331.72 673.74 1323.81 665.08 1323.81 653.7C1323.81 639.19 1336.6 629 1351.33 629C1370.51 629 1377.76 640.49 1379.39 649.48ZM1483.06 646.99H1459.34V707.44H1442.22V646.99H1418.61V630.63H1483.06V646.99ZM1556.3 709.17C1539.4 709.17 1525.86 698.99 1525.86 679.7V630.63H1542.97V678.3C1542.97 687.61 1548.17 692.27 1556.3 692.27C1564.42 692.27 1569.62 687.61 1569.62 678.3V630.63H1586.74V679.7C1586.74 698.99 1573.2 709.17 1556.3 709.17ZM1663.01 707.44H1635.27V630.63H1663.11C1686.19 630.63 1701.68 645.36 1701.68 669.09C1701.68 692.81 1686.19 707.44 1663.01 707.44ZM1652.39 691.3H1662.36C1674.16 691.3 1683.81 684.47 1683.81 669.09C1683.81 653.7 1674.16 646.77 1662.36 646.77H1652.39V691.3ZM1763.76 707.44H1746.42V630.63H1763.76V707.44ZM1808.39 669.09C1808.39 644.71 1826.7 629 1848.36 629C1869.92 629 1888.23 644.71 1888.23 669.09C1888.23 693.35 1869.92 709.06 1848.36 709.06C1826.7 709.06 1808.39 693.35 1808.39 669.09ZM1826.16 668.98C1826.16 685.01 1837.64 692.16 1848.36 692.16C1858.98 692.16 1870.46 685.01 1870.46 668.98C1870.46 652.94 1858.98 645.69 1848.36 645.69C1837.64 645.69 1826.16 652.94 1826.16 668.98Z" fill="black"/>
<path fill-rule="evenodd" clip-rule="evenodd" d="M516.828 479.688C515.533 482.067 514.15 484.412 512.68 486.705C496.197 512.637 470.982 532.043 434.603 528.071C350.925 518.937 335.037 433.265 354.915 369.553C362.947 343.813 376.823 322.395 392.519 311.003C406.64 300.767 422.406 297.442 438.522 302.429C468.41 311.686 474.691 342.045 473.186 359.124C470.352 391.216 441.899 427.245 441.899 427.245C434.638 436.169 421.514 437.517 412.59 430.255C403.665 423.01 402.318 409.869 409.562 400.962C409.562 400.962 429.773 377.13 431.68 355.467C432.013 351.792 432.643 344.233 426.203 342.238C421.374 340.751 417.244 343.988 413.254 347.942C405.31 355.852 399.011 368.135 394.689 381.977C381.95 422.8 385.485 480.808 439.117 486.652C457.403 488.647 469.232 477.378 477.526 464.342C493.73 438.847 497.789 405.197 497.789 405.197C497.859 404.585 497.965 403.99 498.087 403.412C494.045 298.194 539.523 136.443 539.523 136.443C542.655 125.38 554.187 118.948 565.246 122.087C576.305 125.224 582.744 136.754 579.594 147.815C579.594 147.815 530.057 320.767 540.923 418.303C542.498 432.495 545.28 444.884 550.319 454.245C555.149 463.222 562.778 467.981 574.24 466.197C593.383 463.222 601.957 447.946 606.56 434.244C612.159 417.586 612.001 401.837 612.001 401.837C611.984 400.525 612.089 399.23 612.299 397.988C610.724 370.235 618.231 340.383 631.162 315.518C643.778 291.282 661.382 272.669 678.513 264.909C694.611 257.617 710.85 258.135 725.636 268.076C737.132 275.809 743.729 284.988 747.229 294.52C752.234 308.203 750.746 323.235 744.867 337.671C733.65 365.213 705.67 390.271 705.67 390.271C697.061 397.883 683.885 397.078 676.273 388.451C668.661 379.842 669.466 366.666 678.075 359.054C678.075 359.054 692.372 346.437 701.873 330.601C707.403 321.38 713.51 310.146 702.381 302.656C699.039 300.399 695.504 302.604 691.916 305.019C682.975 311.056 674.786 321.957 668.136 334.749C658.425 353.419 651.478 377.13 653.315 397.708C653.49 398.688 653.613 399.72 653.648 400.752C656.272 420.281 667.349 436.502 692.249 442.066C702.083 444.271 710.972 441.209 719.074 435.627C730.01 428.068 739.547 416.309 747.981 403.202C776.416 359.089 791.78 299.402 791.78 299.402C792.007 298.492 792.305 297.599 792.655 296.742L794.002 279.31C794.895 267.847 804.921 259.26 816.383 260.148C827.844 261.035 836.436 271.063 835.543 282.526L831.816 330.794C859.744 287.94 898.363 263.759 945.083 289.092C972.853 304.161 981.48 334.539 972.503 368.205C961.497 409.449 922.703 454.963 875.055 467.264C863.926 470.134 852.552 463.432 849.682 452.303C846.812 441.174 853.514 429.8 864.643 426.913C897.873 418.338 924.575 386.246 932.24 357.479C935.722 344.39 936.002 331.564 925.223 325.719C899.657 311.861 881.039 331.109 865.903 354.802C836.733 400.472 821.947 468.594 820.687 474.561L804.624 682.057C803.731 693.518 793.705 702.11 782.243 701.235C770.782 700.343 762.19 690.316 763.083 678.855L782.646 426.178C777.151 434.752 771.22 442.801 764.903 449.94C742.137 475.593 714.262 489.697 683.15 482.732C665.126 478.69 651.023 471.341 640.279 461.664C640.191 461.874 640.086 462.067 639.999 462.277C629.325 483.73 611.022 502.663 580.627 507.37C551.474 511.902 530.406 501.333 516.828 479.688ZM318.028 157.535C315.718 168.797 304.694 176.059 293.425 173.74C282.156 171.422 274.895 160.396 277.222 149.134C277.222 149.134 284.239 115.422 250.694 109.206C187.858 97.5629 134.453 148.914 112.632 201.895C99.3857 234.05 96.4286 267.751 116.254 287.037C154.401 324.127 203.974 330.759 244.273 345.458C269.173 354.539 291.081 366.246 307.459 385.336C323.978 404.602 335.369 431.515 337.136 472.251C339.464 526.286 302.245 605.886 209.258 610.943C159.283 613.673 120.489 578.396 106.875 536.838C97.4961 508.21 100.208 477.115 117.479 453.493C134.925 429.625 168.207 411.794 223.414 416.046C234.876 416.921 243.468 426.948 242.575 438.409C241.7 449.87 231.674 458.462 220.212 457.587C184.796 454.857 162.31 462.767 151.111 478.078C141.662 491.027 141.33 508.193 146.474 523.871C154.628 548.754 177.061 570.977 207.001 569.35C271.098 565.85 297.118 511.307 295.508 474.053C294.301 446.441 287.966 427.473 277.1 413.981C259.934 392.721 233.021 385.039 204.359 376.167C164.9 363.953 122.186 350.917 87.207 316.918C56.5848 287.137 53.6624 235.653 74.1005 186.023C102.798 116.367 175.679 52.9298 258.289 68.2374C333.48 82.1696 318.028 157.535 318.028 157.535ZM1111.16 283.259C1114.38 273.674 1124.18 267.637 1134.4 269.381C1145.55 271.282 1153.14 281.714 1151.53 292.892C1151.53 292.892 1150.79 297.792 1149.25 305.824C1146.54 322.552 1142.31 354.014 1143.48 380.997C1143.87 390.026 1144.83 398.513 1146.94 405.442C1147.68 407.822 1149.41 411.007 1150.08 412.179C1156.64 412.056 1162.06 407.804 1167.24 402.362C1175.71 393.421 1182.83 380.839 1189.01 367.173C1209.59 321.66 1218.92 264.143 1218.92 264.143C1220.49 254.415 1228.68 247.129 1238.53 246.681C1248.37 246.233 1257.19 252.746 1259.65 262.288C1259.65 262.288 1270.48 305.106 1286.41 330.216C1300.74 352.807 1315.44 376.797 1321.11 399.983C1325.8 419.161 1324.85 437.972 1315.38 455.82C1292.16 499.584 1236.82 497.869 1236.82 497.869C1225.34 497.361 1216.41 487.632 1216.92 476.136C1217.43 464.657 1227.16 455.733 1238.65 456.24C1238.65 456.24 1266.95 458.217 1278.57 436.292C1284.43 425.233 1282.42 413.421 1278.04 401.452C1272.02 385.004 1261.31 368.45 1251.22 352.527C1248.56 348.345 1246.02 343.76 1243.62 338.948C1236.31 362.868 1226.46 388.854 1213.91 409.222C1196.59 437.377 1173.51 454.788 1147.65 453.808C1129.27 453.125 1115.34 440.876 1108.01 420.106C1093.94 439.931 1076.06 452.618 1055.85 453.79C993.642 457.412 973.116 390.761 997.789 339.123C1019.28 294.17 1045.33 279.461 1066.91 275.938C1084.13 273.13 1099.7 277.765 1111.16 283.259ZM1102.18 326.174C1099.82 324.127 1088.03 314.713 1073.63 317.058C1060.85 319.14 1048.08 330.514 1035.38 357.094C1030.11 368.118 1028.1 380.629 1029.86 391.566C1031.77 403.342 1039.14 413.036 1053.43 412.196C1059.38 411.846 1064.14 407.874 1068.64 402.887C1075.76 395.031 1081.61 384.339 1086.61 372.878C1093.33 357.514 1098.46 340.768 1102.18 326.174ZM608.012 660.044C597.898 665.521 585.246 661.741 579.769 651.627C574.292 641.513 578.072 628.862 588.169 623.402C588.169 623.402 616.953 607.794 650.988 598.484C690.062 587.793 721.279 583.191 721.279 583.191C732.653 581.511 743.239 589.385 744.919 600.759C746.599 612.133 738.742 622.737 727.368 624.417C727.368 624.417 698.339 628.722 661.994 638.678C632.755 646.675 608.012 660.044 608.012 660.044ZM865.308 605.589C853.952 607.426 843.243 599.727 841.388 588.37C839.551 577.032 847.25 566.305 858.606 564.468C858.606 564.468 962.915 547.459 1073.35 547.809C1185.14 548.177 1262.98 568.93 1262.98 568.93C1274.11 571.869 1280.72 583.296 1277.78 594.407C1274.84 605.519 1263.41 612.151 1252.3 609.193C1252.3 609.193 1178.77 589.823 1073.21 589.473C966.292 589.14 865.308 605.589 865.308 605.589Z" fill="black"/>
<path fill-rule="evenodd" clip-rule="evenodd" d="M1458.66 346.252L1499.92 534.885C1502.37 546.119 1495.25 557.23 1484.02 559.698C1472.78 562.147 1461.67 555.026 1459.22 543.792L1387.81 217.359C1372.69 222.031 1349.89 233.16 1331.13 259.478C1323.43 270.274 1320.35 279.286 1320.81 286.95C1321.68 302.139 1335.89 309.821 1335.89 309.821C1345.92 315.438 1349.51 328.141 1343.89 338.185C1338.26 348.212 1325.55 351.799 1315.52 346.165C1315.52 346.165 1290.54 332.166 1282.02 304.851C1276.57 287.37 1276.8 263.922 1297.2 235.295C1341.67 172.896 1403.35 172.336 1403.35 172.336C1413.32 172.108 1422.07 178.967 1424.19 188.714L1449.53 304.484C1503.67 288.175 1557.11 243.379 1578.63 192.879C1592 161.487 1592.35 127.662 1569.37 98.3698C1557.82 83.6187 1541.31 81.1514 1527.94 81.7464C1512.78 82.4288 1500.87 87.1883 1500.87 87.1883C1490.23 91.5454 1478.05 86.4359 1473.69 75.7968C1469.34 65.1578 1474.45 52.9791 1485.08 48.622C1485.08 48.622 1503.09 41.1502 1526.07 40.1178C1550.86 39.0154 1580.75 45.3322 1602.17 72.6647C1635.38 115.046 1636.31 163.797 1616.97 209.205C1598.74 251.988 1561.69 291.57 1518.63 318.22C1541.43 330.031 1565.21 351.572 1582.78 390.208C1602.13 432.747 1614.78 472.871 1631.44 502.373C1644.34 525.226 1659.56 540.939 1686.7 541.079C1736.57 541.324 1747.75 491.034 1747.75 491.034C1750.29 479.817 1761.47 472.783 1772.67 475.32C1783.89 477.875 1790.92 489.039 1788.38 500.256C1788.38 500.256 1769.31 583.146 1686.49 582.743C1642.57 582.516 1616.06 559.873 1595.15 522.864C1578 492.486 1564.79 451.243 1544.86 407.462C1518.79 350.172 1474.09 345.902 1458.66 346.252ZM1852.97 285.375C1845.03 319.235 1831.5 364.346 1810.8 396.14C1790.92 426.657 1764.38 445.188 1732.69 441.811C1648.31 432.852 1637.85 344.677 1661.96 281.631C1671.7 256.118 1687.09 235.61 1703.22 225.951C1718.37 216.869 1734.56 215.522 1750.38 223.711C1762.7 230.08 1770.29 238.444 1774.86 247.526C1781.4 260.527 1781.63 275.646 1777.43 290.66C1769.43 319.305 1744.5 347.39 1744.5 347.39C1736.82 355.929 1723.64 356.629 1715.08 348.947C1706.54 341.248 1705.84 328.071 1713.53 319.515C1713.53 319.515 1726.28 305.358 1733.93 288.543C1738.37 278.743 1743.15 266.879 1731.23 260.72C1727.65 258.865 1724.39 261.438 1721.1 264.272C1712.91 271.289 1706.02 283.048 1700.87 296.504C1685.72 336.121 1684.08 394.758 1737.08 400.392C1746.91 401.425 1755.17 396.875 1762.5 389.946C1772.74 380.252 1781.09 366.165 1788.19 350.732C1811.9 299.251 1820.83 232.67 1820.83 232.67C1820.91 231.935 1821.05 231.2 1821.23 230.5C1822.05 218.864 1825.34 209.905 1825.34 209.905C1829.24 199.091 1841.19 193.474 1852.03 197.376C1862.84 201.278 1868.44 213.229 1864.54 224.043C1864.54 224.043 1862.75 229.205 1862.72 235.417C1862.7 238.13 1862.8 241.244 1864.55 243.781C1866.53 246.634 1870.49 247.841 1876.38 248.506C1893.18 250.379 1904.92 255.925 1913.39 263.152C1931.66 278.726 1935.14 304.501 1934.65 330.696C1934.48 340.705 1933.85 350.627 1935.11 359.043C1935.49 361.598 1935.67 364.031 1937.19 365.658C1938.36 366.935 1940.41 366.918 1943.02 367.075C1950.54 367.565 1956.95 363.733 1962.79 358.344C1971.43 350.382 1978.68 339.008 1984.96 326.619C2006.13 284.955 2015.69 231.76 2015.69 231.76C2017.65 220.929 2027.69 213.492 2038.61 214.769C2049.55 216.047 2057.6 225.618 2056.98 236.607C2056.98 236.607 2050.33 357.731 2043.13 422.79C2055.44 421.67 2067.97 421.128 2080.57 421.093C2181.36 420.743 2283.96 450.14 2283.96 450.14C2295 453.325 2301.4 464.856 2298.23 475.915C2295.07 486.974 2283.52 493.361 2272.46 490.194C2272.46 490.194 2175.75 462.424 2080.71 462.756C2066.01 462.809 2051.31 463.456 2037.07 464.996C2031.42 498.646 2022.02 546.487 2004.87 579.909C1986.82 615.15 1960.08 635.063 1925.61 626.664C1889.59 617.88 1874.91 591.317 1874.39 560.625C1873.93 534.763 1884.85 505.61 1900.72 485.382C1923.73 456.037 1959.47 438.504 2000.41 429.335C2002.37 414.093 2004.33 393.708 2006.13 371.852C1988.51 395.773 1966.01 410.314 1940.34 408.669C1923.21 407.567 1912.41 401.022 1905.13 392.29C1896.14 381.494 1892.8 365.343 1892.73 346.97C1892.67 334.896 1893.86 321.632 1892.36 309.751C1891.69 304.571 1890.75 299.654 1887.53 295.997C1884.38 292.445 1879.18 290.747 1871.76 289.907C1864.5 289.103 1858.29 287.51 1852.97 285.375ZM1993.41 473.465C1969.02 480.78 1948 492.609 1933.5 511.087C1923.17 524.246 1915.75 543.092 1916.05 559.908C1916.26 571.912 1921.39 582.743 1935.48 586.173C1950.84 589.917 1959.75 576.619 1967.79 560.905C1980.64 535.847 1988.34 501.76 1993.41 473.465ZM2044.81 105.754C2063.86 105.754 2079.33 121.223 2079.33 140.261C2079.33 159.299 2063.86 174.768 2044.81 174.768C2025.77 174.768 2010.32 159.299 2010.32 140.261C2010.32 121.223 2025.77 105.754 2044.81 105.754ZM2199.42 211.007C2202.47 200.805 2212.81 194.436 2223.43 196.536C2234.65 198.758 2241.98 209.607 2239.86 220.841C2239.86 220.841 2228.57 278.533 2238.04 317.397C2240.35 326.899 2242.87 335.701 2250.38 338.535C2255.52 340.46 2262.01 339.078 2270.46 335.701C2281.14 331.431 2293.28 336.628 2297.55 347.302C2301.82 357.976 2296.62 370.12 2285.95 374.39C2264.97 382.789 2248.49 382.334 2235.71 377.522C2217.62 370.715 2205.25 354.144 2198.84 332.044C2197.48 334.266 2196.08 336.436 2194.66 338.535C2178.13 362.788 2156.74 377.382 2133.52 376.052C2071.72 372.482 2061.08 301.596 2083.3 258.673C2104.02 218.601 2130.15 205.618 2152.72 202.835C2170.97 200.596 2187.68 205.67 2199.42 211.007ZM2188.47 251.936C2182.26 247.929 2166.3 239.565 2149.53 246.336C2139.26 250.466 2129.41 260.213 2120.29 277.816C2114.43 289.172 2112.09 304.466 2115.45 317.187C2117.86 326.339 2124.16 333.776 2135.92 334.458C2141.38 334.773 2145.91 331.361 2150.34 327.109C2157.81 319.9 2164.21 309.645 2169.88 298.517C2177.6 283.38 2183.8 266.599 2188.47 251.936ZM1675.2 143.078C1665.09 148.555 1652.44 144.776 1646.96 134.661C1641.48 124.547 1645.26 111.896 1655.36 106.437C1655.36 106.437 1684.15 90.828 1718.18 81.5188C1757.25 70.8273 1788.47 66.2252 1788.47 66.2252C1799.85 64.5454 1810.43 72.4198 1812.11 83.7937C1813.79 95.1677 1805.93 105.772 1794.56 107.452C1794.56 107.452 1765.53 111.756 1729.19 121.713C1699.95 129.71 1675.2 143.078 1675.2 143.078Z" fill="black"/>
</svg>
