<svg width="600" height="600" viewBox="0 0 600 600" fill="none" xmlns="http://www.w3.org/2000/svg">
<path d="M454.89 327.571V46.6373C408.402 18.1162 354.748 3 300 3C245.252 3 191.598 18.1162 145.11 46.6373V327.571H78V393.625C95.8135 393.594 112.912 400.535 125.542 412.924C138.104 425.381 145.141 442.245 145.11 459.815V560.255C172.29 576.634 201.911 588.696 232.89 596V460.086C232.89 442.532 239.961 425.696 252.546 413.283C265.132 400.87 282.201 393.897 300 393.897C317.799 393.897 334.868 400.87 347.454 413.283C360.039 425.696 367.11 442.532 367.11 460.086V596C398.105 588.746 427.735 576.681 454.89 560.255V459.815C454.89 442.26 461.961 425.424 474.546 413.011C487.132 400.598 504.201 393.625 522 393.625V327.571H454.89ZM232.89 327.571V160.533C232.89 142.978 239.961 126.143 252.546 113.73C265.132 101.317 282.201 94.343 300 94.343C317.799 94.343 334.868 101.317 347.454 113.73C360.039 126.143 367.11 142.978 367.11 160.533V327.571H232.89Z" fill="#FF7600"/>
</svg>
