<svg width="325" height="325" viewBox="0 0 325 325" fill="none" xmlns="http://www.w3.org/2000/svg">
<g clip-path="url(#clip0_18_52)">
<path d="M236.385 286.934L236.165 130.549L263.17 101.396H324.546L325.16 144.972H285.879V172.899L320.738 172.267V212.468L285.879 213.1V246.243L242.624 286.934H236.385Z" fill="#BD9E72"/>
<path d="M264.959 37L296.007 69.7905L264.762 101.071L232.611 69.3839L264.959 37Z" fill="#BD9E72"/>
<path opacity="0.977499" d="M92.9103 165.349C92.9103 165.349 65.0321 129.094 52.0818 150.888C39.1315 172.683 98.6073 177.032 98.1973 229.853C97.7783 283.908 44.817 301.554 0.280756 281.97C-0.350944 254.175 0.280756 223.852 0.280756 223.852C0.280756 223.852 35.3412 257.333 44.817 238.382C54.7914 218.433 17.0214 212.797 7.54555 187.528C33.7619 160.68 91.9353 104.086 91.9353 104.086L92.9103 165.349Z" fill="#BD9E72"/>
<path d="M91.3174 287.672L136.121 102.316H199.339L217.798 195.229L236.385 286.79L184.915 287.672L180.312 264.656L146.862 264.042L175.402 232.741L165.582 148.962L143.18 287.672H91.3174Z" fill="#BD9E72"/>
</g>
<defs>
<clipPath id="clip0_18_52">
<rect width="325" height="325" fill="white"/>
</clipPath>
</defs>
</svg>
